<svg width="166" height="20" viewBox="0 0 166 20" fill="none" xmlns="http://www.w3.org/2000/svg">
<path d="M7.40234 0.439453C8.63932 0.439453 9.84701 0.758464 11.0254 1.39648C12.2038 2.02799 13.1217 2.9362 13.7793 4.12109C14.4368 5.29948 14.7656 6.52995 14.7656 7.8125C14.7656 9.08203 14.4401 10.3027 13.7891 11.4746C13.1445 12.6465 12.2363 13.5579 11.0645 14.209C9.89909 14.8535 8.67839 15.1758 7.40234 15.1758C6.1263 15.1758 4.90234 14.8535 3.73047 14.209C2.5651 13.5579 1.6569 12.6465 1.00586 11.4746C0.354818 10.3027 0.0292969 9.08203 0.0292969 7.8125C0.0292969 6.52995 0.358073 5.29948 1.01562 4.12109C1.67969 2.9362 2.60091 2.02799 3.7793 1.39648C4.95768 0.758464 6.16536 0.439453 7.40234 0.439453ZM7.40234 1.66016C6.36719 1.66016 5.35807 1.92708 4.375 2.46094C3.39844 2.98828 2.63346 3.74674 2.08008 4.73633C1.52669 5.7194 1.25 6.74479 1.25 7.8125C1.25 8.8737 1.52018 9.89258 2.06055 10.8691C2.60742 11.8392 3.36914 12.5977 4.3457 13.1445C5.32227 13.6849 6.34115 13.9551 7.40234 13.9551C8.46354 13.9551 9.48242 13.6849 10.459 13.1445C11.4355 12.5977 12.194 11.8392 12.7344 10.8691C13.2747 9.89258 13.5449 8.8737 13.5449 7.8125C13.5449 6.74479 13.2682 5.7194 12.7148 4.73633C12.168 3.74674 11.403 2.98828 10.4199 2.46094C9.43685 1.92708 8.43099 1.66016 7.40234 1.66016ZM9.76562 9.00391L10.9668 9.35547C10.7715 10.1693 10.3548 10.8203 9.7168 11.3086C9.08529 11.7904 8.31706 12.0312 7.41211 12.0312C6.26628 12.0312 5.33529 11.6602 4.61914 10.918C3.90299 10.1758 3.54492 9.14714 3.54492 7.83203C3.54492 6.97266 3.70768 6.22721 4.0332 5.5957C4.35872 4.95768 4.82096 4.47917 5.41992 4.16016C6.02539 3.83464 6.71549 3.67188 7.49023 3.67188C8.35612 3.67188 9.07552 3.88021 9.64844 4.29688C10.2214 4.70703 10.612 5.26693 10.8203 5.97656L9.6582 6.25977C9.46289 5.77799 9.17318 5.41016 8.78906 5.15625C8.41146 4.89583 7.96549 4.76562 7.45117 4.76562C6.70247 4.76562 6.08398 5.03255 5.5957 5.56641C5.11393 6.10026 4.87305 6.86523 4.87305 7.86133C4.87305 8.85742 5.10091 9.61263 5.55664 10.127C6.01888 10.6348 6.61458 10.8887 7.34375 10.8887C7.92969 10.8887 8.44401 10.7194 8.88672 10.3809C9.32943 10.0423 9.6224 9.58333 9.76562 9.00391ZM30.3809 13.3105V15H20.918C20.9049 14.5768 20.9733 14.1699 21.123 13.7793C21.3639 13.1348 21.748 12.5 22.2754 11.875C22.8092 11.25 23.5775 10.5273 24.5801 9.70703C26.1361 8.43099 27.1875 7.42188 27.7344 6.67969C28.2812 5.93099 28.5547 5.22461 28.5547 4.56055C28.5547 3.86393 28.304 3.27799 27.8027 2.80273C27.3079 2.32096 26.6602 2.08008 25.8594 2.08008C25.013 2.08008 24.3359 2.33398 23.8281 2.8418C23.3203 3.34961 23.0632 4.05273 23.0566 4.95117L21.25 4.76562C21.3737 3.41797 21.8392 2.39258 22.6465 1.68945C23.4538 0.979818 24.5378 0.625 25.8984 0.625C27.2721 0.625 28.3594 1.00586 29.1602 1.76758C29.9609 2.5293 30.3613 3.47331 30.3613 4.59961C30.3613 5.17253 30.2441 5.73568 30.0098 6.28906C29.7754 6.84245 29.3848 7.42513 28.8379 8.03711C28.2975 8.64909 27.3958 9.48893 26.1328 10.5566C25.0781 11.4421 24.401 12.0443 24.1016 12.3633C23.8021 12.6758 23.5547 12.9915 23.3594 13.3105H30.3809ZM32.2754 7.93945C32.2754 6.24674 32.4479 4.88607 32.793 3.85742C33.1445 2.82227 33.6621 2.02474 34.3457 1.46484C35.0358 0.904948 35.9017 0.625 36.9434 0.625C37.7116 0.625 38.3854 0.78125 38.9648 1.09375C39.5443 1.39974 40.0228 1.8457 40.4004 2.43164C40.778 3.01107 41.0742 3.7207 41.2891 4.56055C41.5039 5.39388 41.6113 6.52018 41.6113 7.93945C41.6113 9.61914 41.4388 10.9766 41.0938 12.0117C40.7487 13.0404 40.2311 13.8379 39.541 14.4043C38.8574 14.9642 37.9915 15.2441 36.9434 15.2441C35.5632 15.2441 34.4792 14.7493 33.6914 13.7598C32.7474 12.5684 32.2754 10.6283 32.2754 7.93945ZM34.082 7.93945C34.082 10.2897 34.3555 11.8555 34.9023 12.6367C35.4557 13.4115 36.1361 13.7988 36.9434 13.7988C37.7507 13.7988 38.4277 13.4082 38.9746 12.627C39.528 11.8457 39.8047 10.2832 39.8047 7.93945C39.8047 5.58268 39.528 4.01693 38.9746 3.24219C38.4277 2.46745 37.7441 2.08008 36.9238 2.08008C36.1165 2.08008 35.472 2.42188 34.9902 3.10547C34.3848 3.97786 34.082 5.58919 34.082 7.93945ZM52.6465 13.3105V15H43.1836C43.1706 14.5768 43.2389 14.1699 43.3887 13.7793C43.6296 13.1348 44.0137 12.5 44.541 11.875C45.0749 11.25 45.8431 10.5273 46.8457 9.70703C48.4017 8.43099 49.4531 7.42188 50 6.67969C50.5469 5.93099 50.8203 5.22461 50.8203 4.56055C50.8203 3.86393 50.5697 3.27799 50.0684 2.80273C49.5736 2.32096 48.9258 2.08008 48.125 2.08008C47.2786 2.08008 46.6016 2.33398 46.0938 2.8418C45.5859 3.34961 45.3288 4.05273 45.3223 4.95117L43.5156 4.76562C43.6393 3.41797 44.1048 2.39258 44.9121 1.68945C45.7194 0.979818 46.8034 0.625 48.1641 0.625C49.5378 0.625 50.625 1.00586 51.4258 1.76758C52.2266 2.5293 52.627 3.47331 52.627 4.59961C52.627 5.17253 52.5098 5.73568 52.2754 6.28906C52.041 6.84245 51.6504 7.42513 51.1035 8.03711C50.5632 8.64909 49.6615 9.48893 48.3984 10.5566C47.3438 11.4421 46.6667 12.0443 46.3672 12.3633C46.0677 12.6758 45.8203 12.9915 45.625 13.3105H52.6465ZM60.1758 15V11.5723H53.9648V9.96094L60.498 0.683594H61.9336V9.96094H63.8672V11.5723H61.9336V15H60.1758ZM60.1758 9.96094V3.50586L55.6934 9.96094H60.1758ZM66.6211 15V12.998H68.623V15C68.623 15.7357 68.4928 16.3281 68.2324 16.7773C67.972 17.2331 67.5586 17.5846 66.9922 17.832L66.5039 17.0801C66.875 16.9173 67.1484 16.6764 67.3242 16.3574C67.5 16.0449 67.5977 15.5924 67.6172 15H66.6211ZM87.7344 9.98047L89.6289 10.459C89.2318 12.015 88.5156 13.2031 87.4805 14.0234C86.4518 14.8372 85.1921 15.2441 83.7012 15.2441C82.1582 15.2441 80.9017 14.9316 79.9316 14.3066C78.9681 13.6751 78.2324 12.7637 77.7246 11.5723C77.2233 10.3809 76.9727 9.10156 76.9727 7.73438C76.9727 6.24349 77.2559 4.94466 77.8223 3.83789C78.3952 2.72461 79.2057 1.88151 80.2539 1.30859C81.3086 0.729167 82.4674 0.439453 83.7305 0.439453C85.1628 0.439453 86.3672 0.804036 87.3438 1.5332C88.3203 2.26237 89.0007 3.28776 89.3848 4.60938L87.5195 5.04883C87.1875 4.00716 86.7057 3.2487 86.0742 2.77344C85.4427 2.29818 84.6484 2.06055 83.6914 2.06055C82.5911 2.06055 81.6699 2.32422 80.9277 2.85156C80.1921 3.37891 79.6745 4.08854 79.375 4.98047C79.0755 5.86589 78.9258 6.7806 78.9258 7.72461C78.9258 8.94206 79.1016 10.0065 79.4531 10.918C79.8112 11.8229 80.3646 12.5 81.1133 12.9492C81.862 13.3984 82.6725 13.623 83.5449 13.623C84.6061 13.623 85.5046 13.3171 86.2402 12.7051C86.9759 12.0931 87.474 11.1849 87.7344 9.98047ZM91.0938 9.81445C91.0938 7.89388 91.6276 6.47135 92.6953 5.54688C93.5872 4.77865 94.6745 4.39453 95.957 4.39453C97.3828 4.39453 98.5482 4.86328 99.4531 5.80078C100.358 6.73177 100.811 8.02083 100.811 9.66797C100.811 11.0026 100.609 12.054 100.205 12.8223C99.8079 13.584 99.2253 14.1764 98.457 14.5996C97.6953 15.0228 96.862 15.2344 95.957 15.2344C94.5052 15.2344 93.3301 14.7689 92.4316 13.8379C91.5397 12.9069 91.0938 11.5658 91.0938 9.81445ZM92.9004 9.81445C92.9004 11.1426 93.1901 12.1387 93.7695 12.8027C94.349 13.4603 95.0781 13.7891 95.957 13.7891C96.8294 13.7891 97.5553 13.457 98.1348 12.793C98.7142 12.1289 99.0039 11.1165 99.0039 9.75586C99.0039 8.47331 98.7109 7.50326 98.125 6.8457C97.5456 6.18164 96.8229 5.84961 95.957 5.84961C95.0781 5.84961 94.349 6.17839 93.7695 6.83594C93.1901 7.49349 92.9004 8.48633 92.9004 9.81445ZM102.881 18.9746V4.62891H104.482V5.97656C104.86 5.44922 105.286 5.05534 105.762 4.79492C106.237 4.52799 106.813 4.39453 107.49 4.39453C108.376 4.39453 109.157 4.6224 109.834 5.07812C110.511 5.53385 111.022 6.17839 111.367 7.01172C111.712 7.83854 111.885 8.74674 111.885 9.73633C111.885 10.7975 111.693 11.7546 111.309 12.6074C110.931 13.4538 110.378 14.1048 109.648 14.5605C108.926 15.0098 108.164 15.2344 107.363 15.2344C106.777 15.2344 106.25 15.1107 105.781 14.8633C105.319 14.6159 104.938 14.3034 104.639 13.9258V18.9746H102.881ZM104.473 9.87305C104.473 11.2077 104.743 12.194 105.283 12.832C105.824 13.4701 106.478 13.7891 107.246 13.7891C108.027 13.7891 108.695 13.4603 109.248 12.8027C109.808 12.1387 110.088 11.1133 110.088 9.72656C110.088 8.40495 109.814 7.41536 109.268 6.75781C108.727 6.10026 108.079 5.77148 107.324 5.77148C106.576 5.77148 105.911 6.12305 105.332 6.82617C104.759 7.52279 104.473 8.53841 104.473 9.87305ZM113.936 18.9941L113.74 17.3438C114.124 17.4479 114.46 17.5 114.746 17.5C115.137 17.5 115.449 17.4349 115.684 17.3047C115.918 17.1745 116.11 16.9922 116.26 16.7578C116.37 16.582 116.549 16.1458 116.797 15.4492C116.829 15.3516 116.882 15.2083 116.953 15.0195L113.018 4.62891H114.912L117.07 10.6348C117.35 11.3965 117.601 12.1973 117.822 13.0371C118.024 12.2298 118.265 11.4421 118.545 10.6738L120.762 4.62891H122.52L118.574 15.1758C118.151 16.3151 117.822 17.0996 117.588 17.5293C117.275 18.1087 116.917 18.5319 116.514 18.7988C116.11 19.0723 115.628 19.209 115.068 19.209C114.73 19.209 114.352 19.1374 113.936 18.9941ZM123.994 15V4.62891H125.576V6.20117C125.98 5.46549 126.351 4.98047 126.689 4.74609C127.035 4.51172 127.412 4.39453 127.822 4.39453C128.415 4.39453 129.017 4.58333 129.629 4.96094L129.023 6.5918C128.594 6.33789 128.164 6.21094 127.734 6.21094C127.35 6.21094 127.005 6.32812 126.699 6.5625C126.393 6.79036 126.175 7.10938 126.045 7.51953C125.85 8.14453 125.752 8.82812 125.752 9.57031V15H123.994ZM130.684 2.70508V0.683594H132.441V2.70508H130.684ZM130.684 15V4.62891H132.441V15H130.684ZM134.805 15.8594L136.514 16.1133C136.585 16.6406 136.784 17.0247 137.109 17.2656C137.546 17.5911 138.141 17.7539 138.896 17.7539C139.71 17.7539 140.339 17.5911 140.781 17.2656C141.224 16.9401 141.523 16.4844 141.68 15.8984C141.771 15.5404 141.813 14.7884 141.807 13.6426C141.038 14.5475 140.081 15 138.936 15C137.51 15 136.406 14.4857 135.625 13.457C134.844 12.4284 134.453 11.1947 134.453 9.75586C134.453 8.76628 134.632 7.85482 134.99 7.02148C135.348 6.18164 135.866 5.53385 136.543 5.07812C137.227 4.6224 138.027 4.39453 138.945 4.39453C140.169 4.39453 141.178 4.88932 141.973 5.87891V4.62891H143.594V13.5938C143.594 15.2083 143.428 16.3509 143.096 17.0215C142.77 17.6986 142.249 18.2324 141.533 18.623C140.824 19.0137 139.948 19.209 138.906 19.209C137.669 19.209 136.67 18.929 135.908 18.3691C135.146 17.8158 134.779 16.9792 134.805 15.8594ZM136.26 9.62891C136.26 10.9896 136.53 11.9824 137.07 12.6074C137.611 13.2324 138.288 13.5449 139.102 13.5449C139.909 13.5449 140.586 13.2357 141.133 12.6172C141.68 11.9922 141.953 11.0156 141.953 9.6875C141.953 8.41797 141.67 7.46094 141.104 6.81641C140.544 6.17188 139.867 5.84961 139.072 5.84961C138.291 5.84961 137.627 6.16862 137.08 6.80664C136.533 7.43815 136.26 8.37891 136.26 9.62891ZM146.26 15V0.683594H148.018V5.82031C148.838 4.86979 149.873 4.39453 151.123 4.39453C151.891 4.39453 152.559 4.54753 153.125 4.85352C153.691 5.15299 154.095 5.56966 154.336 6.10352C154.583 6.63737 154.707 7.41211 154.707 8.42773V15H152.949V8.42773C152.949 7.54883 152.757 6.91081 152.373 6.51367C151.995 6.11003 151.458 5.9082 150.762 5.9082C150.241 5.9082 149.749 6.04492 149.287 6.31836C148.831 6.58529 148.506 6.94987 148.311 7.41211C148.115 7.87435 148.018 8.51237 148.018 9.32617V15H146.26ZM161.23 13.4277L161.484 14.9805C160.99 15.0846 160.547 15.1367 160.156 15.1367C159.518 15.1367 159.023 15.0358 158.672 14.834C158.32 14.6322 158.073 14.3685 157.93 14.043C157.786 13.7109 157.715 13.0176 157.715 11.9629V5.99609H156.426V4.62891H157.715V2.06055L159.463 1.00586V4.62891H161.23V5.99609H159.463V12.0605C159.463 12.5618 159.492 12.8841 159.551 13.0273C159.616 13.1706 159.717 13.2845 159.854 13.3691C159.997 13.4538 160.199 13.4961 160.459 13.4961C160.654 13.4961 160.911 13.4733 161.23 13.4277ZM163.457 15V12.998H165.459V15H163.457Z" fill="white"/>
</svg>
