<svg width="644" height="41" viewBox="0 0 644 41" fill="none" xmlns="http://www.w3.org/2000/svg">
<rect y="2" width="458" height="37" rx="4" fill="#282829" fill-opacity="0.7"/>
<g clip-path="url(#clip0_65_590)">
<path d="M36 20.5C36 30.165 28.165 38 18.5 38C8.83502 38 1 30.165 1 20.5C1 10.835 8.83502 3 18.5 3C28.165 3 36 10.835 36 20.5Z" stroke="#EFCFAD" stroke-width="2"/>
<path d="M36.093 14.7722C35.569 13.1616 34.832 11.6483 33.9125 10.2656L17.7188 27.1324L17.7513 29.0095L18.5157 29.0046L36.093 14.7722Z" fill="#A4907D"/>
<path d="M39 8C38.7631 6.77238 36.5 6.0001 36.5 6.0001C36.0497 5.55499 33.4503 8.05569 33 8.5008L18.073 24.0005L11.5 16.5005C11.049 16.0554 9.95066 15.5554 9.5 16.0005L7.36115 17.4298C6.91087 17.8745 6.91087 18.596 7.36115 19.0408L17.1214 28.6834C17.3815 28.9405 17.7341 29.0441 18.073 29.0041C18.4119 29.0437 18.7646 28.9405 19.0247 28.6834L37.0296 10.8945C37.4799 10.4494 39.2591 9.34266 39 8Z" fill="white"/>
<path d="M19.0243 28.682L37.0292 10.8931C38.5 9.99972 39.4503 8.44483 39 7.99972C38.5497 7.55461 36.4909 8.74972 36.4909 8.74972L17.9698 26.9667L7.76964 17.024L7.36116 17.4281C6.91087 17.8728 6.91087 18.5943 7.36116 19.0391L17.121 28.682C17.3811 28.9391 17.7337 29.0427 18.0727 29.0028C18.4116 29.0427 18.7642 28.9395 19.0243 28.682Z" fill="#EFCFAD"/>
</g>
<path d="M65.7969 29V27.4297C65.0078 28.6641 63.8477 29.2812 62.3164 29.2812C61.3242 29.2812 60.4102 29.0078 59.5742 28.4609C58.7461 27.9141 58.1016 27.1523 57.6406 26.1758C57.1875 25.1914 56.9609 24.0625 56.9609 22.7891C56.9609 21.5469 57.168 20.4219 57.582 19.4141C57.9961 18.3984 58.6172 17.6211 59.4453 17.082C60.2734 16.543 61.1992 16.2734 62.2227 16.2734C62.9727 16.2734 63.6406 16.4336 64.2266 16.7539C64.8125 17.0664 65.2891 17.4766 65.6562 17.9844V11.8203H67.7539V29H65.7969ZM59.1289 22.7891C59.1289 24.3828 59.4648 25.5742 60.1367 26.3633C60.8086 27.1523 61.6016 27.5469 62.5156 27.5469C63.4375 27.5469 64.2188 27.1719 64.8594 26.4219C65.5078 25.6641 65.832 24.5117 65.832 22.9648C65.832 21.2617 65.5039 20.0117 64.8477 19.2148C64.1914 18.418 63.3828 18.0195 62.4219 18.0195C61.4844 18.0195 60.6992 18.4023 60.0664 19.168C59.4414 19.9336 59.1289 21.1406 59.1289 22.7891ZM70.2969 22.7773C70.2969 20.4727 70.9375 18.7656 72.2188 17.6562C73.2891 16.7344 74.5938 16.2734 76.1328 16.2734C77.8438 16.2734 79.2422 16.8359 80.3281 17.9609C81.4141 19.0781 81.957 20.625 81.957 22.6016C81.957 24.2031 81.7148 25.4648 81.2305 26.3867C80.7539 27.3008 80.0547 28.0117 79.1328 28.5195C78.2188 29.0273 77.2188 29.2812 76.1328 29.2812C74.3906 29.2812 72.9805 28.7227 71.9023 27.6055C70.832 26.4883 70.2969 24.8789 70.2969 22.7773ZM72.4648 22.7773C72.4648 24.3711 72.8125 25.5664 73.5078 26.3633C74.2031 27.1523 75.0781 27.5469 76.1328 27.5469C77.1797 27.5469 78.0508 27.1484 78.7461 26.3516C79.4414 25.5547 79.7891 24.3398 79.7891 22.707C79.7891 21.168 79.4375 20.0039 78.7344 19.2148C78.0391 18.418 77.1719 18.0195 76.1328 18.0195C75.0781 18.0195 74.2031 18.4141 73.5078 19.2031C72.8125 19.9922 72.4648 21.1836 72.4648 22.7773Z" fill="white"/>
<path d="M117.611 27.82C117.611 30.5133 116.851 32.6867 115.331 34.34C113.811 35.9667 111.744 36.9267 109.131 37.22V40.66H108.131V37.3H107.531C106.731 37.3 105.931 37.22 105.131 37.06V40.66H104.131V36.82C102.797 36.4733 101.491 35.9267 100.211 35.18L96.8108 36.9H95.9308V26.62H96.8108L100.251 34.06C101.371 34.8867 102.664 35.5133 104.131 35.94V21.78L103.051 21.5C100.731 20.8867 98.9841 19.8467 97.8108 18.38C96.6374 16.8867 96.0508 15.1267 96.0508 13.1C96.0508 10.5133 96.7574 8.38 98.1708 6.7C99.6108 5.02 101.597 4.04667 104.131 3.78V0.659999H105.131V3.7H105.411C106.477 3.7 107.384 3.76666 108.131 3.9V0.659999H109.131V4.06C110.117 4.27333 111.051 4.56667 111.931 4.94L114.851 3.7H115.731V11.86H114.851L111.971 6.02C110.957 5.54 110.011 5.20667 109.131 5.02V17.86L110.731 18.3C113.051 18.8867 114.771 19.9 115.891 21.34C117.037 22.7533 117.611 24.9133 117.611 27.82ZM105.131 4.58V16.82L108.131 17.62V4.82C107.251 4.66 106.357 4.58 105.451 4.58H105.131ZM104.131 16.58V4.66C102.184 4.87333 100.664 5.56667 99.5708 6.74C98.5041 7.88667 97.9708 9.32667 97.9708 11.06C97.9708 12.5 98.4374 13.6333 99.3708 14.46C100.331 15.2867 101.731 15.94 103.571 16.42L104.131 16.58ZM108.131 36.42V22.82L105.131 22.02V36.18C106.011 36.34 106.917 36.42 107.851 36.42H108.131ZM109.131 36.34C111.157 36.1267 112.797 35.42 114.051 34.22C115.331 32.9933 115.971 31.3667 115.971 29.34C115.971 27.7133 115.477 26.4333 114.491 25.5C113.504 24.54 111.904 23.78 109.691 23.22L109.131 23.06V36.34ZM123.184 36.5V35.7L125.984 35.3V5.7L123.184 5.3V4.5H129.984V35.3L132.784 35.7V36.5H123.184ZM150.293 37.3C147.973 37.3 145.946 36.6733 144.213 35.42C142.479 34.1667 141.133 32.2867 140.173 29.78C139.213 27.2467 138.733 24.1533 138.733 20.5C138.733 16.8467 139.213 13.7667 140.173 11.26C141.133 8.72667 142.479 6.83333 144.213 5.58C145.946 4.32666 147.973 3.7 150.293 3.7C152.613 3.7 154.639 4.32666 156.373 5.58C158.106 6.83333 159.453 8.72667 160.413 11.26C161.373 13.7667 161.853 16.8467 161.853 20.5C161.853 24.1533 161.373 27.2467 160.413 29.78C159.453 32.2867 158.106 34.1667 156.373 35.42C154.639 36.6733 152.613 37.3 150.293 37.3ZM150.293 36.38C152.293 36.38 153.866 35.4067 155.013 33.46C156.159 31.5133 156.733 28.4733 156.733 24.34V16.62C156.733 12.5133 156.159 9.48667 155.013 7.54C153.866 5.59333 152.293 4.62 150.293 4.62C148.293 4.62 146.719 5.59333 145.573 7.54C144.426 9.48667 143.853 12.5133 143.853 16.62V24.34C143.853 28.4467 144.426 31.4867 145.573 33.46C146.719 35.4067 148.293 36.38 150.293 36.38ZM190.915 37.3C188.595 37.3 186.568 36.6733 184.835 35.42C183.101 34.1667 181.755 32.2867 180.795 29.78C179.835 27.2467 179.355 24.1533 179.355 20.5C179.355 16.8467 179.835 13.7667 180.795 11.26C181.755 8.72667 183.101 6.83333 184.835 5.58C186.568 4.32666 188.595 3.7 190.915 3.7C193.235 3.7 195.261 4.32666 196.995 5.58C198.728 6.83333 200.075 8.72667 201.035 11.26C201.995 13.7667 202.475 16.8467 202.475 20.5C202.475 24.1533 201.995 27.2467 201.035 29.78C200.075 32.2867 198.728 34.1667 196.995 35.42C195.261 36.6733 193.235 37.3 190.915 37.3ZM190.915 36.38C192.915 36.38 194.488 35.4067 195.635 33.46C196.781 31.5133 197.355 28.4733 197.355 24.34V16.62C197.355 12.5133 196.781 9.48667 195.635 7.54C194.488 5.59333 192.915 4.62 190.915 4.62C188.915 4.62 187.341 5.59333 186.195 7.54C185.048 9.48667 184.475 12.5133 184.475 16.62V24.34C184.475 28.4467 185.048 31.4867 186.195 33.46C187.341 35.4067 188.915 36.38 190.915 36.38ZM220.366 37.3C218.046 37.3 216.019 36.6733 214.286 35.42C212.553 34.1667 211.206 32.2867 210.246 29.78C209.286 27.2467 208.806 24.1533 208.806 20.5C208.806 16.8467 209.286 13.7667 210.246 11.26C211.206 8.72667 212.553 6.83333 214.286 5.58C216.019 4.32666 218.046 3.7 220.366 3.7C222.686 3.7 224.713 4.32666 226.446 5.58C228.179 6.83333 229.526 8.72667 230.486 11.26C231.446 13.7667 231.926 16.8467 231.926 20.5C231.926 24.1533 231.446 27.2467 230.486 29.78C229.526 32.2867 228.179 34.1667 226.446 35.42C224.713 36.6733 222.686 37.3 220.366 37.3ZM220.366 36.38C222.366 36.38 223.939 35.4067 225.086 33.46C226.233 31.5133 226.806 28.4733 226.806 24.34V16.62C226.806 12.5133 226.233 9.48667 225.086 7.54C223.939 5.59333 222.366 4.62 220.366 4.62C218.366 4.62 216.793 5.59333 215.646 7.54C214.499 9.48667 213.926 12.5133 213.926 16.62V24.34C213.926 28.4467 214.499 31.4867 215.646 33.46C216.793 35.4067 218.366 36.38 220.366 36.38ZM249.818 37.3C247.498 37.3 245.471 36.6733 243.738 35.42C242.004 34.1667 240.658 32.2867 239.698 29.78C238.738 27.2467 238.258 24.1533 238.258 20.5C238.258 16.8467 238.738 13.7667 239.698 11.26C240.658 8.72667 242.004 6.83333 243.738 5.58C245.471 4.32666 247.498 3.7 249.818 3.7C252.138 3.7 254.164 4.32666 255.898 5.58C257.631 6.83333 258.978 8.72667 259.938 11.26C260.898 13.7667 261.378 16.8467 261.378 20.5C261.378 24.1533 260.898 27.2467 259.938 29.78C258.978 32.2867 257.631 34.1667 255.898 35.42C254.164 36.6733 252.138 37.3 249.818 37.3ZM249.818 36.38C251.818 36.38 253.391 35.4067 254.538 33.46C255.684 31.5133 256.258 28.4733 256.258 24.34V16.62C256.258 12.5133 255.684 9.48667 254.538 7.54C253.391 5.59333 251.818 4.62 249.818 4.62C247.818 4.62 246.244 5.59333 245.098 7.54C243.951 9.48667 243.378 12.5133 243.378 16.62V24.34C243.378 28.4467 243.951 31.4867 245.098 33.46C246.244 35.4067 247.818 36.38 249.818 36.38Z" fill="white"/>
<path d="M188.926 24.4414L191 24.7109C190.773 26.1406 190.191 27.2617 189.254 28.0742C188.324 28.8789 187.18 29.2812 185.82 29.2812C184.117 29.2812 182.746 28.7266 181.707 27.6172C180.676 26.5 180.16 24.9023 180.16 22.8242C180.16 21.4805 180.383 20.3047 180.828 19.2969C181.273 18.2891 181.949 17.5352 182.855 17.0352C183.77 16.5273 184.762 16.2734 185.832 16.2734C187.184 16.2734 188.289 16.6172 189.148 17.3047C190.008 17.9844 190.559 18.9531 190.801 20.2109L188.75 20.5273C188.555 19.6914 188.207 19.0625 187.707 18.6406C187.215 18.2188 186.617 18.0078 185.914 18.0078C184.852 18.0078 183.988 18.3906 183.324 19.1562C182.66 19.9141 182.328 21.1172 182.328 22.7656C182.328 24.4375 182.648 25.6523 183.289 26.4102C183.93 27.168 184.766 27.5469 185.797 27.5469C186.625 27.5469 187.316 27.293 187.871 26.7852C188.426 26.2773 188.777 25.4961 188.926 24.4414ZM192.02 22.7773C192.02 20.4727 192.66 18.7656 193.941 17.6562C195.012 16.7344 196.316 16.2734 197.855 16.2734C199.566 16.2734 200.965 16.8359 202.051 17.9609C203.137 19.0781 203.68 20.625 203.68 22.6016C203.68 24.2031 203.438 25.4648 202.953 26.3867C202.477 27.3008 201.777 28.0117 200.855 28.5195C199.941 29.0273 198.941 29.2812 197.855 29.2812C196.113 29.2812 194.703 28.7227 193.625 27.6055C192.555 26.4883 192.02 24.8789 192.02 22.7773ZM194.188 22.7773C194.188 24.3711 194.535 25.5664 195.23 26.3633C195.926 27.1523 196.801 27.5469 197.855 27.5469C198.902 27.5469 199.773 27.1484 200.469 26.3516C201.164 25.5547 201.512 24.3398 201.512 22.707C201.512 21.168 201.16 20.0039 200.457 19.2148C199.762 18.418 198.895 18.0195 197.855 18.0195C196.801 18.0195 195.926 18.4141 195.23 19.2031C194.535 19.9922 194.188 21.1836 194.188 22.7773ZM206.164 29V16.5547H208.062V18.3242C208.977 16.957 210.297 16.2734 212.023 16.2734C212.773 16.2734 213.461 16.4102 214.086 16.6836C214.719 16.9492 215.191 17.3008 215.504 17.7383C215.816 18.1758 216.035 18.6953 216.16 19.2969C216.238 19.6875 216.277 20.3711 216.277 21.3477V29H214.168V21.4297C214.168 20.5703 214.086 19.9297 213.922 19.5078C213.758 19.0781 213.465 18.7383 213.043 18.4883C212.629 18.2305 212.141 18.1016 211.578 18.1016C210.68 18.1016 209.902 18.3867 209.246 18.957C208.598 19.5273 208.273 20.6094 208.273 22.2031V29H206.164ZM218.68 25.2852L220.766 24.957C220.883 25.793 221.207 26.4336 221.738 26.8789C222.277 27.3242 223.027 27.5469 223.988 27.5469C224.957 27.5469 225.676 27.3516 226.145 26.9609C226.613 26.5625 226.848 26.0977 226.848 25.5664C226.848 25.0898 226.641 24.7148 226.227 24.4414C225.938 24.2539 225.219 24.0156 224.07 23.7266C222.523 23.3359 221.449 23 220.848 22.7188C220.254 22.4297 219.801 22.0352 219.488 21.5352C219.184 21.0273 219.031 20.4688 219.031 19.8594C219.031 19.3047 219.156 18.793 219.406 18.3242C219.664 17.8477 220.012 17.4531 220.449 17.1406C220.777 16.8984 221.223 16.6953 221.785 16.5312C222.355 16.3594 222.965 16.2734 223.613 16.2734C224.59 16.2734 225.445 16.4141 226.18 16.6953C226.922 16.9766 227.469 17.3594 227.82 17.8438C228.172 18.3203 228.414 18.9609 228.547 19.7656L226.484 20.0469C226.391 19.4062 226.117 18.9062 225.664 18.5469C225.219 18.1875 224.586 18.0078 223.766 18.0078C222.797 18.0078 222.105 18.168 221.691 18.4883C221.277 18.8086 221.07 19.1836 221.07 19.6133C221.07 19.8867 221.156 20.1328 221.328 20.3516C221.5 20.5781 221.77 20.7656 222.137 20.9141C222.348 20.9922 222.969 21.1719 224 21.4531C225.492 21.8516 226.531 22.1797 227.117 22.4375C227.711 22.6875 228.176 23.0547 228.512 23.5391C228.848 24.0234 229.016 24.625 229.016 25.3438C229.016 26.0469 228.809 26.7109 228.395 27.3359C227.988 27.9531 227.398 28.4336 226.625 28.7773C225.852 29.1133 224.977 29.2812 224 29.2812C222.383 29.2812 221.148 28.9453 220.297 28.2734C219.453 27.6016 218.914 26.6055 218.68 25.2852ZM240.043 24.9922L242.223 25.2617C241.879 26.5352 241.242 27.5234 240.312 28.2266C239.383 28.9297 238.195 29.2812 236.75 29.2812C234.93 29.2812 233.484 28.7227 232.414 27.6055C231.352 26.4805 230.82 24.9062 230.82 22.8828C230.82 20.7891 231.359 19.1641 232.438 18.0078C233.516 16.8516 234.914 16.2734 236.633 16.2734C238.297 16.2734 239.656 16.8398 240.711 17.9727C241.766 19.1055 242.293 20.6992 242.293 22.7539C242.293 22.8789 242.289 23.0664 242.281 23.3164H233C233.078 24.6836 233.465 25.7305 234.16 26.457C234.855 27.1836 235.723 27.5469 236.762 27.5469C237.535 27.5469 238.195 27.3438 238.742 26.9375C239.289 26.5312 239.723 25.8828 240.043 24.9922ZM233.117 21.582H240.066C239.973 20.5352 239.707 19.75 239.27 19.2266C238.598 18.4141 237.727 18.0078 236.656 18.0078C235.688 18.0078 234.871 18.332 234.207 18.9805C233.551 19.6289 233.188 20.4961 233.117 21.582ZM253.004 24.4414L255.078 24.7109C254.852 26.1406 254.27 27.2617 253.332 28.0742C252.402 28.8789 251.258 29.2812 249.898 29.2812C248.195 29.2812 246.824 28.7266 245.785 27.6172C244.754 26.5 244.238 24.9023 244.238 22.8242C244.238 21.4805 244.461 20.3047 244.906 19.2969C245.352 18.2891 246.027 17.5352 246.934 17.0352C247.848 16.5273 248.84 16.2734 249.91 16.2734C251.262 16.2734 252.367 16.6172 253.227 17.3047C254.086 17.9844 254.637 18.9531 254.879 20.2109L252.828 20.5273C252.633 19.6914 252.285 19.0625 251.785 18.6406C251.293 18.2188 250.695 18.0078 249.992 18.0078C248.93 18.0078 248.066 18.3906 247.402 19.1562C246.738 19.9141 246.406 21.1172 246.406 22.7656C246.406 24.4375 246.727 25.6523 247.367 26.4102C248.008 27.168 248.844 27.5469 249.875 27.5469C250.703 27.5469 251.395 27.293 251.949 26.7852C252.504 26.2773 252.855 25.4961 253.004 24.4414ZM261.488 27.1133L261.793 28.9766C261.199 29.1016 260.668 29.1641 260.199 29.1641C259.434 29.1641 258.84 29.043 258.418 28.8008C257.996 28.5586 257.699 28.2422 257.527 27.8516C257.355 27.4531 257.27 26.6211 257.27 25.3555V18.1953H255.723V16.5547H257.27V13.4727L259.367 12.207V16.5547H261.488V18.1953H259.367V25.4727C259.367 26.0742 259.402 26.4609 259.473 26.6328C259.551 26.8047 259.672 26.9414 259.836 27.043C260.008 27.1445 260.25 27.1953 260.562 27.1953C260.797 27.1953 261.105 27.168 261.488 27.1133ZM272.082 24.9922L274.262 25.2617C273.918 26.5352 273.281 27.5234 272.352 28.2266C271.422 28.9297 270.234 29.2812 268.789 29.2812C266.969 29.2812 265.523 28.7227 264.453 27.6055C263.391 26.4805 262.859 24.9062 262.859 22.8828C262.859 20.7891 263.398 19.1641 264.477 18.0078C265.555 16.8516 266.953 16.2734 268.672 16.2734C270.336 16.2734 271.695 16.8398 272.75 17.9727C273.805 19.1055 274.332 20.6992 274.332 22.7539C274.332 22.8789 274.328 23.0664 274.32 23.3164H265.039C265.117 24.6836 265.504 25.7305 266.199 26.457C266.895 27.1836 267.762 27.5469 268.801 27.5469C269.574 27.5469 270.234 27.3438 270.781 26.9375C271.328 26.5312 271.762 25.8828 272.082 24.9922ZM265.156 21.582H272.105C272.012 20.5352 271.746 19.75 271.309 19.2266C270.637 18.4141 269.766 18.0078 268.695 18.0078C267.727 18.0078 266.91 18.332 266.246 18.9805C265.59 19.6289 265.227 20.4961 265.156 21.582ZM281.527 27.1133L281.832 28.9766C281.238 29.1016 280.707 29.1641 280.238 29.1641C279.473 29.1641 278.879 29.043 278.457 28.8008C278.035 28.5586 277.738 28.2422 277.566 27.8516C277.395 27.4531 277.309 26.6211 277.309 25.3555V18.1953H275.762V16.5547H277.309V13.4727L279.406 12.207V16.5547H281.527V18.1953H279.406V25.4727C279.406 26.0742 279.441 26.4609 279.512 26.6328C279.59 26.8047 279.711 26.9414 279.875 27.043C280.047 27.1445 280.289 27.1953 280.602 27.1953C280.836 27.1953 281.145 27.168 281.527 27.1133ZM291.758 29V27.1719C290.789 28.5781 289.473 29.2812 287.809 29.2812C287.074 29.2812 286.387 29.1406 285.746 28.8594C285.113 28.5781 284.641 28.2266 284.328 27.8047C284.023 27.375 283.809 26.8516 283.684 26.2344C283.598 25.8203 283.555 25.1641 283.555 24.2656V16.5547H285.664V23.457C285.664 24.5586 285.707 25.3008 285.793 25.6836C285.926 26.2383 286.207 26.6758 286.637 26.9961C287.066 27.3086 287.598 27.4648 288.23 27.4648C288.863 27.4648 289.457 27.3047 290.012 26.9844C290.566 26.6562 290.957 26.2148 291.184 25.6602C291.418 25.0977 291.535 24.2852 291.535 23.2227V16.5547H293.645V29H291.758ZM296.938 29V16.5547H298.836V18.4414C299.32 17.5586 299.766 16.9766 300.172 16.6953C300.586 16.4141 301.039 16.2734 301.531 16.2734C302.242 16.2734 302.965 16.5 303.699 16.9531L302.973 18.9102C302.457 18.6055 301.941 18.4531 301.426 18.4531C300.965 18.4531 300.551 18.5938 300.184 18.875C299.816 19.1484 299.555 19.5312 299.398 20.0234C299.164 20.7734 299.047 21.5938 299.047 22.4844V29H296.938ZM320.152 24.9922L322.332 25.2617C321.988 26.5352 321.352 27.5234 320.422 28.2266C319.492 28.9297 318.305 29.2812 316.859 29.2812C315.039 29.2812 313.594 28.7227 312.523 27.6055C311.461 26.4805 310.93 24.9062 310.93 22.8828C310.93 20.7891 311.469 19.1641 312.547 18.0078C313.625 16.8516 315.023 16.2734 316.742 16.2734C318.406 16.2734 319.766 16.8398 320.82 17.9727C321.875 19.1055 322.402 20.6992 322.402 22.7539C322.402 22.8789 322.398 23.0664 322.391 23.3164H313.109C313.188 24.6836 313.574 25.7305 314.27 26.457C314.965 27.1836 315.832 27.5469 316.871 27.5469C317.645 27.5469 318.305 27.3438 318.852 26.9375C319.398 26.5312 319.832 25.8828 320.152 24.9922ZM313.227 21.582H320.176C320.082 20.5352 319.816 19.75 319.379 19.2266C318.707 18.4141 317.836 18.0078 316.766 18.0078C315.797 18.0078 314.98 18.332 314.316 18.9805C313.66 19.6289 313.297 20.4961 313.227 21.582ZM324.945 29V11.8203H327.055V29H324.945ZM330.348 14.2461V11.8203H332.457V14.2461H330.348ZM330.348 29V16.5547H332.457V29H330.348ZM340.285 27.1133L340.59 28.9766C339.996 29.1016 339.465 29.1641 338.996 29.1641C338.23 29.1641 337.637 29.043 337.215 28.8008C336.793 28.5586 336.496 28.2422 336.324 27.8516C336.152 27.4531 336.066 26.6211 336.066 25.3555V18.1953H334.52V16.5547H336.066V13.4727L338.164 12.207V16.5547H340.285V18.1953H338.164V25.4727C338.164 26.0742 338.199 26.4609 338.27 26.6328C338.348 26.8047 338.469 26.9414 338.633 27.043C338.805 27.1445 339.047 27.1953 339.359 27.1953C339.594 27.1953 339.902 27.168 340.285 27.1133Z" fill="white"/>
<defs>
<clipPath id="clip0_65_590">
<rect width="39" height="37" fill="white" transform="translate(0 2)"/>
</clipPath>
</defs>
</svg>
